<svg width="800" height="900" xmlns="http://www.w3.org/2000/svg">
 <g>
  <title>background</title>
  <rect x="-1" y="-1" width="802" height="902" id="canvas_background" fill="none"/>
 </g>

 <g>
  <title>ACSTIS</title>
  <g id="svg_1">
   <path fill="#4c4c4c" d="m764.319298,616.466l-10.542,20.539l-348.286,-178.688l-338.726,191.683l-11.371,-20.093l349.556,-197.814l359.369,184.373zm-388.315,-282.097l-5.784,-305.957l23.086,-0.436l5.783,305.956l-23.085,0.437z" id="svg_4"/>
   <path d="m405.178298,457.38a12.09,12.09 0 0 1 -6.313,-1.638l-386.679,-224.12a12.132,12.132 0 0 1 0.42,-21.224l365.654,-192.828a12.109,12.109 0 0 1 4.874,-1.38c0.009,-0.004 0.022,0 0.036,0c0.005,0 0.014,-0.004 0.023,0c0.135,-0.009 0.275,-0.013 0.415,-0.018l6.538,-0.172c1.813,0.023 3.589,0.312 5.24,1.046l390.462,173.493a12.123,12.123 0 0 1 7.165,10.131a12.105,12.105 0 0 1 -5.497,11.128l-375.97,243.626a12.115,12.115 0 0 1 -6.368,1.956zm-361.852,-235.754l361.267,209.403l350.941,-227.407l-367.494,-163.29l-0.965,0.027l-343.749,181.267z" fill="#4c4c4c" id="svg_5"/>
   <g stroke="null" id="svg_18">
    <path stroke="null" d="m169.910539,300.310519l233.674175,-83.257386l239.967006,81.777038l-38.85468,309.162112l-201.112325,111.380085l-197.965899,-109.899749l-35.708276,-309.162101z" fill="#E23237" id="svg_15"/>
    <path stroke="null" d="m643.551719,298.830182l-239.967006,-81.777049l0,502.319236l201.112325,-111.194343l38.85468,-309.347854l0,0.000011z" fill="#B52E31" id="svg_16"/>
    <path stroke="null" d="m403.954339,275.703849l-145.606155,323.96363l54.393578,-0.924981l29.233422,-73.08262l130.620754,0l32.008353,74.007601l51.988271,0.92497l-152.638224,-324.8886zm0.371473,103.794508l49.21334,102.867679l-92.50903,0l43.29569,-102.867679z" fill="#FFF" id="svg_17"/>
   </g>
   <g fill="#4c4c4c" id="svg_7">
    <path d="m407.327298,883.756a12.181,12.181 0 0 1 -6.917,-2.016l-345.697,-228.313a12.112,12.112 0 0 1 -5.384,-8.978l-39.914,-419.758a12.144,12.144 0 0 1 2.832,-12.07a12.13,12.13 0 0 1 14.902,-2.034l374.082,220.563c0.289,0.171 0.572,0.356 0.848,0.551l3.837,2.714a12.146,12.146 0 0 1 5.122,9.676l8.188,427.311a12.14,12.14 0 0 1 -6.276,10.862a12.293,12.293 0 0 1 -5.623,1.492zm-334.402,-247.378l321.596,212.406l-7.629,-397.925l-351.288,-207.121l37.321,392.64z" id="svg_8"/>
    <path d="m409.658298,882.85a12.158,12.158 0 0 1 -5.803,-1.353a12.141,12.141 0 0 1 -6.557,-10.695l-2.795,-425.538a12.134,12.134 0 0 1 5.51,-10.249l374.127,-243.595a12.14,12.14 0 0 1 13.544,0.208a12.123,12.123 0 0 1 5.037,12.007l-21.558,423.721a12.132,12.132 0 0 1 -5.172,9.334l-349.62,243.982a12.163,12.163 0 0 1 -6.713,2.178zm9.148,-431.12l2.597,395.837l325.821,-227.385l20.119,-395.386l-348.537,226.934z" id="svg_9"/>
   </g>
  </g>
 </g>
</svg>
